<svg width="180" height="180" viewBox="0 0 180 180" fill="none" xmlns="http://www.w3.org/2000/svg">
<g clip-path="url(#clip0_2303_2)">
<path d="M61 26.6C61.5333 22.3333 63.4 18.8667 66.6 16.2C69.8 13.5333 73.4667 12.2 77.6 12.2C81.4667 12.2 84.4667 13.4667 86.6 16C88.8667 18.4 89.7333 21.4 89.2 25C88.6667 29.1333 86.7333 32.6 83.4 35.4C80.2 38.0667 76.5333 39.4 72.4 39.4C68.5333 39.4 65.5333 38.2 63.4 35.8C61.2667 33.2667 60.4667 30.2 61 26.6ZM54.4 79C56.9333 71.2667 56.0667 67.4 51.8 67.4C48.8667 67.4 46.2667 68.9333 44 72C41.7333 74.9333 39.4 79.6667 37 86.2L33.8 94.6H30L35.2 79.8C37.2 74.3333 39.6 70.1333 42.4 67.2C45.2 64.2667 48.2 62.2 51.4 61C54.7333 59.8 57.9333 59.2 61 59.2C65.4 59.2 68.7333 60.0667 71 61.8C73.2667 63.5333 74.6667 65.8 75.2 68.6C75.7333 71.4 75.7333 74.4667 75.2 77.8C74.6667 81 73.8667 84.1333 72.8 87.2L51.6 148C50.2667 151.733 49.8667 154.6 50.4 156.6C50.9333 158.6 52.3333 159.6 54.6 159.6C57 159.6 59.3333 158.333 61.6 155.8C63.8667 153.133 66.4 148.133 69.2 140.8L72.4 132.6H76.2L71 147.2C69.1333 152.533 66.8 156.667 64 159.6C61.2 162.533 58.2 164.6 55 165.8C51.9333 167.133 48.8 167.8 45.6 167.8C39.8667 167.8 35.8 166.533 33.4 164C31.1333 161.333 30.1333 157.8 30.4 153.4C30.6667 148.867 31.7333 143.933 33.6 138.6L54.4 79ZM106.119 125.2C109.585 112.267 112.252 99.6 114.119 87.2C116.119 74.6667 117.785 63 119.119 52.2C120.585 41.2667 122.119 31.9333 123.719 24.2C123.985 22.2 124.385 20.2667 124.919 18.4C125.585 16.5333 126.452 14.8667 127.519 13.4C128.585 11.9333 129.852 10.8 131.319 9.99999C132.785 9.06666 134.519 8.59999 136.519 8.59999C140.919 8.59999 143.919 9.93332 145.519 12.6C147.119 15.1333 147.519 18.3333 146.719 22.2C145.519 27.8 143.452 34.4 140.519 42C137.585 49.4667 134.252 57.7333 130.519 66.8C126.919 75.7333 123.252 85.2 119.519 95.2C115.785 105.067 112.519 115.267 109.719 125.8L106.119 125.2ZM88.3188 157C88.3188 152.6 89.9188 148.733 93.1188 145.4C96.4521 142.067 100.252 140.4 104.519 140.4C107.985 140.4 110.719 141.467 112.719 143.6C114.852 145.6 115.919 148.2 115.919 151.4C115.919 154.333 115.119 157.067 113.519 159.6C112.052 162 110.052 163.933 107.519 165.4C105.119 167 102.385 167.8 99.3188 167.8C95.9854 167.8 93.3188 166.8 91.3188 164.8C89.3188 162.8 88.3188 160.2 88.3188 157Z" fill="#2F2F2F"/>
</g>
<defs>
<clipPath id="clip0_2303_2">
<rect width="180" height="180" fill="white"/>
</clipPath>
</defs>
</svg>
